<?xml version="1.0" encoding="UTF-8" standalone="no"?>
<!DOCTYPE svg PUBLIC "-//W3C//DTD SVG 1.0//EN"
 "http://www.w3.org/TR/2001/REC-SVG-20010904/DTD/svg10.dtd" [
 <!ATTLIST svg xmlns:xlink CDATA #FIXED "http://www.w3.org/1999/xlink">
]>
<!-- Generated by Graphviz version 2.16.1 (Thu Jan 17 17:16:42 GMT 2008)
     For user: martyn -->
<!-- Title: comms_driver_state_machine Pages: 1 -->
<svg width="445pt" height="1108pt"
 viewBox="0.00 0.00 445.00 1108.00" xmlns="http://www.w3.org/2000/svg" xmlns:xlink="http://www.w3.org/1999/xlink">
<g id="graph0" class="graph" transform="scale(1 1) rotate(0) translate(4 1104)">
<title>comms_driver_state_machine</title>
<polygon style="fill:white;stroke:white;" points="-4,4 -4,-1104 441,-1104 441,4 -4,4"/>
<text text-anchor="middle" x="218" y="-7.275" style="font-family:Times New Roman;font-size:14.00;">Comms Driver State Machine</text>
<!-- init_state -->
<g id="node1" class="node"><title>init_state</title>
<ellipse style="fill:lightblue;stroke:black;" cx="257" cy="-1061" rx="38.9222" ry="38.9222"/>
<text text-anchor="middle" x="257" y="-1065.35" style="font-family:verdana;font-size:16.00;fill:#000080;">init</text>
<text text-anchor="middle" x="257" y="-1046.6" style="font-family:verdana;font-size:16.00;fill:#000080;">state</text>
</g>
<!-- idle_state -->
<g id="node3" class="node"><title>idle_state</title>
<ellipse style="fill:lightblue;stroke:black;" cx="257" cy="-929" rx="38.9222" ry="38.9222"/>
<text text-anchor="middle" x="257" y="-933.35" style="font-family:verdana;font-size:16.00;fill:#000080;">idle</text>
<text text-anchor="middle" x="257" y="-914.6" style="font-family:verdana;font-size:16.00;fill:#000080;">state</text>
</g>
<!-- init_state&#45;&gt;idle_state -->
<g id="edge2" class="edge"><title>init_state&#45;&gt;idle_state</title>
<path style="fill:none;stroke:green;" d="M257,-1022C257,-1008 257,-993 257,-978"/>
<polygon style="fill:green;stroke:green;" points="260.5,-978 257,-968 253.5,-978 260.5,-978"/>
<text text-anchor="middle" x="297" y="-989.975" style="font-family:verdana;font-size:16.00;fill:darkgreen;">initialised!</text>
</g>
<!-- idle_state&#45;&gt;idle_state -->
<g id="edge4" class="edge"><title>idle_state&#45;&gt;idle_state</title>
<path style="fill:none;stroke:green;" d="M294,-941C305,-941 314,-937 314,-929 314,-924 310,-920 304,-918"/>
<polygon style="fill:green;stroke:green;" points="304.299,-914.512 294,-917 303.602,-921.478 304.299,-914.512"/>
<text text-anchor="middle" x="334" y="-933.35" style="font-family:verdana;font-size:16.00;fill:darkgreen;">no</text>
<text text-anchor="middle" x="334" y="-914.6" style="font-family:verdana;font-size:16.00;fill:darkgreen;">data!</text>
</g>
<!-- check_range_state -->
<g id="node6" class="node"><title>check_range_state</title>
<ellipse style="fill:lightblue;stroke:black;" cx="257" cy="-771" rx="44.9324" ry="44.9324"/>
<text text-anchor="middle" x="257" y="-784.725" style="font-family:verdana;font-size:16.00;fill:#000080;">check</text>
<text text-anchor="middle" x="257" y="-765.975" style="font-family:verdana;font-size:16.00;fill:#000080;">range</text>
<text text-anchor="middle" x="257" y="-747.225" style="font-family:verdana;font-size:16.00;fill:#000080;">state</text>
</g>
<!-- idle_state&#45;&gt;check_range_state -->
<g id="edge6" class="edge"><title>idle_state&#45;&gt;check_range_state</title>
<path style="fill:none;stroke:green;" d="M257,-890C257,-871 257,-848 257,-826"/>
<polygon style="fill:green;stroke:green;" points="260.5,-826 257,-816 253.5,-826 260.5,-826"/>
<text text-anchor="middle" x="293" y="-857.35" style="font-family:verdana;font-size:16.00;fill:darkgreen;">data</text>
<text text-anchor="middle" x="293" y="-838.6" style="font-family:verdana;font-size:16.00;fill:darkgreen;">received!</text>
</g>
<!-- range_error_state -->
<g id="node8" class="node"><title>range_error_state</title>
<ellipse style="fill:lightblue;stroke:black;" cx="112" cy="-503" rx="44.9324" ry="44.9324"/>
<text text-anchor="middle" x="112" y="-516.725" style="font-family:verdana;font-size:16.00;fill:#000080;">range</text>
<text text-anchor="middle" x="112" y="-497.975" style="font-family:verdana;font-size:16.00;fill:#000080;">error</text>
<text text-anchor="middle" x="112" y="-479.225" style="font-family:verdana;font-size:16.00;fill:#000080;">state</text>
</g>
<!-- check_range_state&#45;&gt;range_error_state -->
<g id="edge8" class="edge"><title>check_range_state&#45;&gt;range_error_state</title>
<path style="fill:none;stroke:green;" d="M230,-735C211,-707 185,-669 166,-634 153,-608 140,-579 131,-554"/>
<polygon style="fill:green;stroke:green;" points="134.26,-552.717 127,-545 127.863,-555.56 134.26,-552.717"/>
<text text-anchor="middle" x="235" y="-684.35" style="font-family:verdana;font-size:16.00;fill:darkgreen;">range</text>
<text text-anchor="middle" x="235" y="-665.6" style="font-family:verdana;font-size:16.00;fill:darkgreen;">error!</text>
</g>
<!-- store_in_buffer_state -->
<g id="node10" class="node"><title>store_in_buffer_state</title>
<ellipse style="fill:lightblue;stroke:black;" cx="306" cy="-503" rx="131.198" ry="131.198"/>
<text text-anchor="middle" x="306" y="-497.975" style="font-family:verdana;font-size:16.00;fill:#000080;">store_in_buffer_state</text>
</g>
<!-- check_range_state&#45;&gt;store_in_buffer_state -->
<g id="edge10" class="edge"><title>check_range_state&#45;&gt;store_in_buffer_state</title>
<path style="fill:none;stroke:green;" d="M265,-726C270,-703 275,-673 280,-642"/>
<polygon style="fill:green;stroke:green;" points="283.471,-642.492 282,-632 276.607,-641.119 283.471,-642.492"/>
<text text-anchor="middle" x="298" y="-693.725" style="font-family:verdana;font-size:16.00;fill:darkgreen;">no</text>
<text text-anchor="middle" x="298" y="-674.975" style="font-family:verdana;font-size:16.00;fill:darkgreen;">range</text>
<text text-anchor="middle" x="298" y="-656.225" style="font-family:verdana;font-size:16.00;fill:darkgreen;">error!</text>
</g>
<!-- flush_buffer_state -->
<g id="node12" class="node"><title>flush_buffer_state</title>
<ellipse style="fill:lightblue;stroke:black;" cx="112" cy="-168" rx="112.106" ry="112.106"/>
<text text-anchor="middle" x="112" y="-162.975" style="font-family:verdana;font-size:16.00;fill:#000080;">flush_buffer_state</text>
</g>
<!-- range_error_state&#45;&gt;flush_buffer_state -->
<g id="edge12" class="edge"><title>range_error_state&#45;&gt;flush_buffer_state</title>
<path style="fill:none;stroke:green;" d="M112,-458C112,-415 112,-349 112,-290"/>
<polygon style="fill:green;stroke:green;" points="115.5,-290 112,-280 108.5,-290 115.5,-290"/>
<text text-anchor="middle" x="142" y="-339.725" style="font-family:verdana;font-size:16.00;fill:darkgreen;">range</text>
<text text-anchor="middle" x="142" y="-320.975" style="font-family:verdana;font-size:16.00;fill:darkgreen;">error</text>
<text text-anchor="middle" x="142" y="-302.225" style="font-family:verdana;font-size:16.00;fill:darkgreen;">logged!</text>
</g>
</g>
</svg>
